DataType=double
version=3
OpenSimVersion=4.5-2023-11-26-efcdfd3eb
endheader
time	EMG01_right_gast_med	EMG02_right_glut_max	EMG03_left_gast_med	EMG04_left_glut_max	EMG05_right_glut_med	EMG06_right_bic_fem	EMG07_right_rect_fem	EMG08_right_vast_lat	EMG09_right_vast_med	EMG10_right_tens_fasc_lat	EMG11_left_glut_med	EMG12_left_bic_fem	EMG13_left_rect_fem	EMG14_left_vast_lat	EMG15_left_vast_med	EMG16_left_tens_fasc_lat
0.64	0.03422280408162028	0.05070262971208622	0.368322636173498	0.01396828331160491	0.0380612086972744	0.2212905572217272	0.03073047461669253	0.01875317116558283	0.02504663040642185	0.03755976937821132	0.060067829461475	0.01786422610237294	0.05178419297318726	0.006072208712347161	0.007959542610077908	0.09600147467366697
0.65	0.03633841880600382	0.05058480305103397	0.3690604260621899	0.01408631076189312	0.0424412465077439	0.2283408382149371	0.0330709282984089	0.02012426481601567	0.02774113894916266	0.03961001887709171	0.05954947161268222	0.01854948416015458	0.05427885913085622	0.007108097859149272	0.007945067904847787	0.08803899542690073
0.66	0.03808339864200241	0.05095417617298945	0.3680128585215958	0.01448111711854004	0.04717343836785516	0.2346545714195201	0.03544007280717511	0.0215981354967333	0.03056637524083078	0.04207653954063736	0.05895475807783826	0.0191898920813345	0.05666361409160765	0.00828526812241558	0.008277301058427123	0.08069128507915613
0.67	0.03944580054213708	0.05179991943160257	0.3651704274246715	0.01516305108094418	0.05218629505399191	0.2401748723311413	0.03781816219575191	0.02316389665184049	0.03349774718942367	0.04492892045494481	0.05828042974470234	0.01977532028278616	0.05890416134507412	0.009580327476015251	0.008939411665045536	0.07401737698216518
0.68	0.04041983526741731	0.05310566636585563	0.3605487272418496	0.01614039161490306	0.05740581391627021	0.2448518555975737	0.04018552240995235	0.02480915433205357	0.03650876601521633	0.04813333858403835	0.05752513876726796	0.02029675847860277	0.06096879398217588	0.01097034000596447	0.009911919740708779	0.06806892573210133
0.6899999999999999	0.04100602183933014	0.0548496998712154	0.3541881545950187	0.01741901817274059	0.06275639237496597	0.2486430748468015	0.04252258511070506	0.02652008667819964	0.03957134436449673	0.0516527799063132	0.05668920003033266	0.02074633211242701	0.06282865313230654	0.01243295429154791	0.01117283108432771	0.06288941241093558
0.7	0.04121133345838408	0.05700519322174731	0.3461530455047357	0.019002100856288	0.06816176337752987	0.2515139332670824	0.04480993710150302	0.02828154625702554	0.04265612602160648	0.05544730161059924	0.05577434581478301	0.021117304637285	0.0644579430724302	0.01394650960594692	0.01269778376796917	0.05851344985696764
0.71	0.04104933099665046	0.05954050456223201	0.3365302783697934	0.02088981815327501	0.07354594333201656	0.2534380736139888	0.04702838863511174	0.03007718651644423	0.04573284419546032	0.05947433645267208	0.05478349060418122	0.02140406817778896	0.06583410421115549	0.01549012252596029	0.01446020880284489	0.05496620240490156
0.72	0.04054027851813249	0.06241952309166868	0.325427388385489	0.02307910963722669	0.07883418243165649	0.2543977478494019	0.04915906288824884	0.03188961320833469	0.04877070452595232	0.06368903942351505	0.0537205119301737	0.02160212584136039	0.06693794541719653	0.01704375691373311	0.01643150821264486	0.05226293252054831
0.73	0.03971123364791846	0.06560206459009679	0.3129702587700297	0.02556347061330158	0.08395390640295174	0.2543841586980824	0.05118350732180053	0.03370056092667666	0.05173878757195837	0.06804467560242627	0.05259005242139322	0.02170806937303341	0.06775373787677273	0.01858828070586368	0.0185812536123823	0.05040868472136131
0.74	0.03859610388888898	0.06904431320773566	0.2993004709416069	0.02833279514764056	0.08883563782859312	0.2533977598170998	0.05308382598321513	0.03549109412285149	0.05460646384765191	0.0724930463607209	0.05139734762174705	0.02171955572021418	0.06826927341410625	0.02010551345982276	0.02087740799214579	0.04939811521166733
0.75	0.03723565815228323	0.07269930560441461	0.2845724049725425	0.03137327338963442	0.09341388466888302	0.2514484979720309	0.05484283050038287	0.03724183114744841	0.05734381283424175	0.07698494925290522	0.05014808350673913	0.02163528552711269	0.06847589060854323	0.02157826890702818	0.02328657284155109	0.04921547374527376
0.76	0.03567748097907725	0.07651745270238193	0.2689501835231632	0.03466734864920738	0.09762798329183742	0.2485559778360672	0.05644420676185811	0.0389331889296466	0.0599220362155878	0.08147066536300827	0.04884828679943419	0.02145498593520769	0.06836847228164274	0.02299039659385308	0.0257742621159756	0.04983474232311198
0.77	0.03397585548113482	0.08044709373450629	0.2526045488834714	0.03819373919787913	0.1014228825466294	0.2447495264157442	0.05787269398178495	0.04054564481886954	0.06231385514981499	0.08590046669653832	0.04750425006330641	0.02117939953737527	0.0679454183634937	0.02432682605679121	0.02830520387403343	0.05121993340173928
0.78	0.03219156022923998	0.08443507718867871	0.2357097556126522	0.04192752907311285	0.1047498536307941	0.2400681303749107	0.05911427276151317	0.04206001108407662	0.06449388178215706	0.09022513550155424	0.04612249216608871	0.02081028091365437	0.06720859866934084	0.02557361611202107	0.03084366965120359	0.0533255482707706
